# xmcd CD database file
#
# Track frame offsets:
#	182
#	16777
#	31565
#	32500
#	50582
#	62292
#	71565
#	83482
#	92180
#	103992
#	115605
#	120605
#	128555
#
# Disc length: 1773 seconds
#
# Revision: 0
# Processed by: cddbd v1.4PL0 Copyright (c) Steve Scherf et al.
# Submitted via: CdAid 2001.05.15.01
#
DISCID=9406eb0d
DTITLE=the Jackson Five - the first recordings [CD2)
DYEAR=1900
DGENRE=
TTITLE0=big boy
TTITLE1=you have changed
TTITLE2=the introduction
TTITLE3=boys and girls, we are the Jackson Five
TTITLE4=my girl
TTITLE5=soul jerk
TTITLE6=under the broadwalk
TTITLE7=saturday night at the movies
TTITLE8=stormy monday
TTITLE9=the tracks of the tears
TTITLE10=lonely hearts
TTITLE11=a change is gonna come
TTITLE12=baby, you don´t have to go
EXTD=Double Goldies - 2 CD
EXTT0=
EXTT1=
EXTT2=
EXTT3=
EXTT4=
EXTT5=
EXTT6=
EXTT7=
EXTT8=
EXTT9=
EXTT10=
EXTT11=
EXTT12=
PLAYORDER=
